<svg width="514" height="514" viewBox="0 0 514 514" fill="none" xmlns="http://www.w3.org/2000/svg">
<path fill-rule="evenodd" clip-rule="evenodd" d="M383.155 53.6527C365.511 28.3778 330.409 9.11224 289.92 2.39582C275.434 -0.0786538 246.832 -0.785665 232.717 0.981815C216.187 2.92604 191.671 9.81921 176.07 16.8891C161.584 23.4288 155.826 27.494 144.311 38.4524C129.825 52.4155 123.881 61.9599 115.709 84.5836C104.009 116.929 91.0079 128.771 67.0492 128.771C57.5772 128.771 56.0914 128.24 49.7767 122.054C39.1903 111.98 36.9616 95.8955 46.4336 97.3095C49.0338 97.663 51.8197 100.491 54.2341 104.91C64.2633 123.291 83.7646 117.635 95.0938 92.8908C97.8797 87.2348 99.9227 82.2859 99.9227 81.9324C99.9227 80.1649 64.8205 64.4344 49.9624 59.4854C29.5326 52.769 5.57394 49.234 3.34523 52.5923C1.30224 55.9505 -1.1122 131.245 0.559338 142.557C1.67369 151.218 2.60232 152.278 12.2601 159.525C31.2041 173.488 39.1903 184.27 41.6048 199.116C42.3477 203.358 41.7905 220.503 40.4904 237.117C38.076 271.583 39.7475 285.369 49.0338 303.574C55.9057 316.654 74.664 334.152 98.0655 348.822C122.024 364.022 149.14 389.297 163.441 409.8C169.198 418.107 180.713 438.08 188.885 454.34C211.544 498.527 226.216 511.96 253.332 513.728C265.962 514.435 268.005 514.081 279.334 508.779C296.235 500.825 307.007 487.746 325.208 453.28C333.009 438.08 344.152 418.814 349.91 410.33C363.654 390.004 391.141 364.022 415.657 348.292C441.287 331.854 456.888 317.007 465.06 301.1C475.089 281.658 476.018 273.351 473.232 234.466C470.446 196.642 471.189 190.456 480.661 177.553C483.632 173.311 491.433 165.711 498.119 160.409C514.463 147.506 514.834 146.269 513.534 97.8397C512.791 76.4532 511.863 57.1877 511.12 54.89C510.191 51.7085 508.705 51.0015 502.577 51.0015C484.375 51.0015 455.216 59.4854 430.515 71.8578C420.193 76.9698 415.784 79.1259 414.816 82.3235C414.077 84.7643 415.343 87.8119 417.514 93.2443C423.086 107.561 431.258 114.631 442.587 114.631C451.688 114.631 455.588 111.98 459.488 102.965C462.274 96.6025 465.246 95.0118 470.074 97.3095C476.946 100.668 470.26 119.226 459.86 125.236C447.787 132.306 426.429 128.594 415.471 117.636C408.599 110.742 406.556 106.854 398.199 84.9371C393.741 73.2718 386.869 59.1319 383.155 53.6527ZM80.9775 227.573C74.8486 212.196 68.3481 187.805 68.3481 180.028C68.3481 177.377 69.4625 176.846 74.4771 177.553C96.3928 180.381 134.652 183.563 158.425 184.623C173.84 185.153 188.884 186.744 192.042 187.981C198.728 190.633 206.157 199.293 209.314 208.131C210.8 212.373 211.357 244.541 211.357 316.124C211.357 401.493 211.729 419.344 214.143 426.768C216.186 433.131 221.201 440.201 232.901 453.103C241.816 462.824 250.174 472.546 251.66 474.667C253.331 476.964 255.188 478.732 255.931 478.732C257.974 478.732 295.12 436.489 298.463 430.126C301.063 425.531 301.62 409.977 302.363 317.007L303.291 209.191C303.291 209.191 302.363 211.621 305.149 201.679C307.935 191.737 317.778 186.744 360.309 184.27C381.111 182.856 408.784 180.735 421.785 179.498C434.971 178.26 445.929 177.73 446.486 178.614C449.643 183.386 436.271 228.987 427.914 242.597C415.656 262.746 393.926 274.234 368.296 274.411C351.394 274.588 338.208 269.992 325.95 259.564L319.078 253.908V333.445C319.078 378.339 318.335 416.87 317.221 421.996C314.621 435.252 310.906 441.791 296.977 457.169C290.105 464.592 278.59 477.671 271.161 486.332C263.732 494.816 256.86 501.356 255.931 500.825C251.66 498.351 207.828 447.447 202.999 439.317C197.799 430.303 197.613 429.242 196.313 398.311C195.57 380.813 194.827 341.575 194.827 311.175L194.642 255.676L187.398 261.155C159.54 282.188 120.909 278.83 96.3928 253.201C89.8924 246.308 85.8064 239.769 80.9775 227.573Z" fill="#25262A"/>
</svg>
