<svg width="1367" height="352" viewBox="0 0 1367 352" fill="none" xmlns="http://www.w3.org/2000/svg">
<path fill-rule="evenodd" clip-rule="evenodd" d="M261.97 36.6834C249.907 19.4024 225.906 6.23021 198.224 1.63807C188.319 -0.0537771 168.764 -0.537173 159.113 0.671285C147.811 2.00059 131.049 6.71358 120.383 11.5474C110.478 16.0187 106.541 18.7982 98.6682 26.2906C88.7635 35.8375 84.7 42.3631 79.1127 57.8314C71.1127 79.9462 62.2238 88.0429 45.8428 88.0429C39.3666 88.0429 38.3507 87.6803 34.0333 83.4507C26.7952 76.5625 25.2713 65.5655 31.7475 66.5323C33.5253 66.774 35.4301 68.7075 37.0809 71.7287C43.938 84.2967 57.2714 80.4296 65.0174 63.5112C66.9222 59.6441 68.319 56.2604 68.319 56.0187C68.319 54.8102 44.319 44.055 34.1602 40.6713C20.192 36.0792 3.811 33.6622 2.28719 35.9583C0.890366 38.2544 -0.760429 89.7347 0.382429 97.4688C1.14434 103.39 1.77926 104.115 8.38244 109.07C21.3348 118.617 26.7952 125.988 28.4459 136.14C28.9539 139.04 28.5729 150.762 27.684 162.121C26.0333 185.686 27.1761 195.112 33.5253 207.559C38.2237 216.502 51.0492 228.466 67.0492 238.496C83.4301 248.889 101.97 266.17 111.748 280.188C115.684 285.868 123.557 299.523 129.144 310.641C144.637 340.852 154.668 350.037 173.208 351.245C181.843 351.729 183.24 351.487 190.986 347.862C202.541 342.423 209.906 333.481 222.351 309.916C227.684 299.523 235.303 286.351 239.24 280.55C248.637 266.653 267.43 248.889 284.192 238.133C301.716 226.895 312.383 216.744 317.97 205.868C324.827 192.575 325.462 186.895 323.557 160.309C321.653 134.448 322.161 130.218 328.637 121.396C330.668 118.496 336.002 113.3 340.573 109.674C351.748 100.853 352.002 100.007 351.113 66.8948C350.605 52.2725 349.97 39.1003 349.462 37.5293C348.827 35.3541 347.811 34.8707 343.621 34.8707C331.176 34.8707 311.24 40.6713 294.351 49.1305C287.294 52.6257 284.279 54.0998 283.618 56.2861C283.112 57.9549 283.978 60.0386 285.462 63.7528C289.272 73.5414 294.859 78.3752 302.605 78.3752C308.827 78.3752 311.494 76.5625 314.161 70.3994C316.065 66.0489 318.097 64.9613 321.399 66.5323C326.097 68.8284 321.526 81.5172 314.414 85.6259C306.161 90.4598 291.557 87.922 284.065 80.4296C279.367 75.7166 277.97 73.058 272.256 58.0731C269.208 50.0973 264.51 40.4296 261.97 36.6834ZM55.3659 155.596C51.1754 145.082 46.731 128.405 46.731 123.088C46.731 121.276 47.4929 120.913 50.9214 121.396C65.9056 123.33 92.0643 125.505 108.318 126.23C118.858 126.593 129.144 127.68 131.302 128.526C135.874 130.339 140.953 136.26 143.112 142.303C144.128 145.203 144.509 167.197 144.509 216.14C144.509 274.508 144.763 286.714 146.414 291.789C147.81 296.139 151.239 300.973 159.239 309.795C165.334 316.442 171.049 323.088 172.064 324.538C173.207 326.109 174.477 327.318 174.985 327.318C176.382 327.318 201.779 298.436 204.064 294.085C205.842 290.943 206.223 280.309 206.731 216.744L207.366 143.028C207.366 143.028 206.731 144.689 208.636 137.892C210.541 131.094 217.271 127.68 246.35 125.989C260.572 125.022 279.493 123.572 288.382 122.726C297.398 121.88 304.89 121.517 305.271 122.121C307.43 125.384 298.287 156.563 292.573 165.868C284.192 179.644 269.334 187.499 251.811 187.62C240.255 187.741 231.239 184.599 222.858 177.469L218.16 173.602V227.982C218.16 258.677 217.652 285.022 216.89 288.526C215.112 297.59 212.572 302.061 203.049 312.575C198.35 317.65 190.477 326.593 185.398 332.514C180.318 338.315 175.62 342.786 174.985 342.423C172.064 340.732 142.096 305.928 138.795 300.369C135.239 294.206 135.112 293.481 134.223 272.333C133.715 260.369 133.207 233.541 133.207 212.756L133.08 174.81L128.128 178.556C109.08 192.937 82.6675 190.641 65.9056 173.118C61.4611 168.405 58.6675 163.934 55.3659 155.596Z" fill="white"/>
<path d="M579.586 111.317H526.227V265.873H496.788V111.317H443.429V85.5579H579.586V111.317Z" fill="white"/>
<path d="M743.299 265.873H614.502V137.077L640.261 111.317H614.502V85.5579H743.299V111.317H643.941V184.915L666.021 162.836H743.299V188.595H643.941V240.114H743.299V265.873Z" fill="white"/>
<path d="M940.174 265.873H785.618V234.594L908.895 111.317H785.618V85.5579H940.174V117.205L816.897 240.114H940.174V265.873Z" fill="white"/>
<path d="M1148.19 265.873H1118.75V214.355H1023.07V265.873H993.633V111.317C993.633 104.203 996.086 98.1922 1000.99 93.2857C1006.14 88.1338 1012.28 85.5579 1019.39 85.5579H1148.19V265.873ZM1118.75 188.595V111.317H1023.07V210.675L1045.15 188.595H1118.75Z" fill="white"/>
<path d="M1367 240.114C1367 247.229 1364.42 253.362 1359.27 258.514C1354.37 263.42 1348.36 265.873 1341.24 265.873H1238.2C1231.09 265.873 1224.96 263.42 1219.8 258.514C1214.9 253.362 1212.44 247.229 1212.44 240.114V111.317C1212.44 104.203 1214.9 98.1922 1219.8 93.2857C1224.96 88.1338 1231.09 85.5579 1238.2 85.5579H1341.24C1348.36 85.5579 1354.37 88.1338 1359.27 93.2857C1364.42 98.1922 1367 104.203 1367 111.317V137.077H1337.56V111.317H1241.88V240.114H1337.56V214.355H1367V240.114Z" fill="white"/>
</svg>
