<svg width="1367" height="267" viewBox="0 0 1367 267" fill="none" xmlns="http://www.w3.org/2000/svg">
<path d="M201.529 38.4314H122.551V266.431H78.9775V38.4314H0V0.431396H201.529V38.4314Z" fill="white"/>
<path d="M443.844 266.431H253.209V76.4314L291.336 38.4314H253.209V0.431396H443.844V38.4314H296.783V147.003L329.463 114.431H443.844V152.431H296.783V228.431H443.844V266.431Z" fill="white"/>
<path d="M735.244 266.431H506.482V220.289L688.947 38.4314H506.482V0.431396H735.244V47.1171L552.779 228.431H735.244V266.431Z" fill="white"/>
<path d="M1043.13 266.431H999.559V190.431H857.944V266.431H814.37V38.4314C814.37 27.9361 818.001 19.0695 825.264 11.8314C832.889 4.2314 841.967 0.431396 852.497 0.431396H1043.13V266.431ZM999.559 152.431V38.4314H857.944V185.003L890.624 152.431H999.559Z" fill="white"/>
<path d="M1367 228.431C1367 238.927 1363.19 247.974 1355.56 255.574C1348.3 262.812 1339.4 266.431 1328.87 266.431H1176.36C1165.83 266.431 1156.76 262.812 1149.13 255.574C1141.87 247.974 1138.24 238.927 1138.24 228.431V38.4314C1138.24 27.9361 1141.87 19.0695 1149.13 11.8314C1156.76 4.2314 1165.83 0.431396 1176.36 0.431396H1328.87C1339.4 0.431396 1348.3 4.2314 1355.56 11.8314C1363.19 19.0695 1367 27.9361 1367 38.4314V76.4314H1323.43V38.4314H1181.81V228.431H1323.43V190.431H1367V228.431Z" fill="white"/>
</svg>
